<?xml version="1.0" standalone="no"?>
<!DOCTYPE svg PUBLIC "-//W3C//DTD SVG 20010904//EN"
 "http://www.w3.org/TR/2001/REC-SVG-20010904/DTD/svg10.dtd">
<svg version="1.0" xmlns="http://www.w3.org/2000/svg"
 width="512.000000pt" height="512.000000pt" viewBox="0 0 512.000000 512.000000"
 preserveAspectRatio="xMidYMid meet">

<g transform="translate(0.000000,512.000000) scale(0.100000,-0.100000)"
fill="#000000" stroke="none">
<path d="M2371 5109 c-514 -39 -1002 -232 -1409 -558 -418 -334 -735 -818
-872 -1335 -234 -878 19 -1816 665 -2461 250 -250 557 -451 890 -580 446 -175
985 -220 1444 -120 229 50 350 92 578 204 331 163 480 267 708 496 169 168
261 282 370 455 218 349 333 711 367 1159 13 181 1 424 -33 620 -180 1061
-1033 1914 -2091 2090 -220 37 -409 46 -617 30z m-611 -1376 c38 -13 106 -76
431 -400 l385 -384 375 382 c410 419 413 422 524 422 151 0 259 -101 260 -243
0 -128 5 -122 -421 -550 l-384 -385 381 -380 c210 -210 389 -397 400 -418 64
-123 7 -293 -120 -359 -68 -36 -127 -37 -199 -3 -41 19 -112 82 -320 287 -147
144 -322 316 -389 382 l-123 121 -387 -387 c-214 -212 -403 -393 -421 -402
-88 -45 -189 -27 -270 48 -60 54 -82 105 -82 186 0 122 6 130 428 552 l377
378 -392 392 c-427 429 -413 411 -413 530 0 80 48 172 111 210 75 47 155 54
249 21z"/>
</g>
</svg>
