<svg height="512pt" viewBox="0 -76 512 512" width="512pt" xmlns="http://www.w3.org/2000/svg"><path d="m437 210c-12.289062 0-23.726562 3.253906-33.972656 8.515625l-20.273438-24.09375c8.988282-5.3125 18.710938-9.398437 28.988282-11.699219 8.378906-1.886718 16.683593-2.578125 25.339843-2.707031 11.179688.085937 22.179688-4.324219 30.410157-12.480469 8.585937-8.496094 13.507812-20.316406 13.507812-34.292968 0-76.824219-64.71875-133.242188-133.050781-133.242188h-16.949219c-8.289062 0-15 6.710938-15 15s6.710938 15 15 15h16.949219c4.46875 0 8.730469.769531 13.050781 1.324219v28.984375c-8.710938.789062-16.914062 3.484375-24.675781 7.097656-.097657-.113281-.222657-.1875-.316407-.300781-12.3125 5.757812-22.925781 14.761719-30.613281 26.292969l-34.144531 51.210937c-2.34375 3.5-6.035156 5.859375-10.210938 6.503906-30.367187 4.667969-56.691406 24.027344-70.515624 52.296875 12.8125 19.148438 20.476562 41.960938 20.476562 66.589844h-31c0-49.628906-40.371094-90-90-90s-90 40.371094-90 90 40.371094 90 90 90c39.058594 0 72.046875-25.15625 84.472656-60h141.527344c8.289062 0 15-6.710938 15-15 0-8.335938.996094-16.847656 2.945312-25.28125 4.085938-17.515625 13.195313-33.457031 25.421876-46.480469l20.246093 24.058594c-10.832031 13.003906-17.613281 29.496094-17.613281 47.703125 0 41.351562 33.648438 75 75 75s75-33.648438 75-75-33.648438-75-75-75zm-347 120c-33.089844 0-60-26.910156-60-60s26.910156-60 60-60 60 26.910156 60 60h-45c-8.277344 0-15-6.722656-15-15 0-8.289062-6.710938-15-15-15s-15 6.710938-15 15c0 24.8125 20.1875 45 45 45h36.65625c-10.40625 17.847656-29.542969 30-51.65625 30zm347 0c-24.8125 0-45-20.1875-45-45 0-8.691406 2.589844-16.742188 6.875-23.632812l26.40625 33.007812c5.214844 6.503906 14.660156 7.484375 21.09375 2.34375 6.460938-5.1875 7.515625-14.617188 2.34375-21.09375l-26.375-32.96875c4.617188-1.605469 9.496094-2.65625 14.65625-2.65625 24.8125 0 45 20.1875 45 45s-20.1875 45-45 45zm0 0"/><path d="m254.734375 115.308594 25.699219-38.550782c8.214844-12.328124 18.988281-22.34375 31.226562-30.121093-16.460937-10.394531-35.4375-16.636719-55.660156-16.636719-35.441406 0-68.179688 18.066406-87.449219 47.039062l23.992188 14.398438c19.273437 11.5625 40.378906 19.304688 62.191406 23.871094zm0 0"/><path d="m177.105469 117.15625-96.257813-57.15625h-65.847656c-8.289062 0-15 6.710938-15 15 0 41.351562 33.648438 75 75 75 30.003906 0 61.128906.652344 94.476562 29.640625.128907-.238281.128907-.507813.273438-.738281 11.636719-18.710938 28.066406-33.21875 46.902344-43.414063-13.636719-4.988281-26.988282-10.800781-39.546875-18.332031zm0 0"/></svg>