<?xml version="1.0" standalone="no"?>
<!DOCTYPE svg PUBLIC "-//W3C//DTD SVG 20010904//EN"
 "http://www.w3.org/TR/2001/REC-SVG-20010904/DTD/svg10.dtd">
<svg version="1.0" xmlns="http://www.w3.org/2000/svg"
 width="980.000000pt" height="980.000000pt" viewBox="0 0 980.000000 980.000000"
 preserveAspectRatio="xMidYMid meet">
<metadata>
Created by potrace 1.16, written by Peter Selinger 2001-2019
</metadata>
<g transform="translate(0.000000,980.000000) scale(0.100000,-0.100000)"
fill="#000000" stroke="none">
<path d="M520 9784 c-182 -39 -367 -186 -448 -354 -108 -226 -91 -469 49 -677
17 -27 887 -904 1933 -1950 l1901 -1903 -1901 -1902 c-1046 -1047 -1916 -1924
-1933 -1951 -140 -208 -157 -451 -49 -677 33 -69 57 -101 127 -171 70 -70 102
-94 172 -128 225 -108 467 -90 676 50 27 17 904 887 1951 1933 l1902 1901
1903 -1901 c1046 -1046 1923 -1916 1950 -1933 209 -141 455 -158 677 -50 120
59 240 179 299 299 108 222 91 468 -50 677 -17 27 -887 904 -1933 1951 l-1901
1902 1901 1903 c1046 1046 1916 1923 1933 1950 141 209 158 449 49 677 -33 69
-57 101 -127 171 -70 70 -102 94 -171 127 -228 109 -468 92 -677 -49 -27 -17
-904 -887 -1950 -1933 l-1903 -1901 -1902 1901 c-1047 1046 -1924 1916 -1951
1933 -159 107 -345 144 -527 105z"/>
</g>
</svg>
