<?xml version="1.0" standalone="no"?>
<!DOCTYPE svg PUBLIC "-//W3C//DTD SVG 20010904//EN"
 "http://www.w3.org/TR/2001/REC-SVG-20010904/DTD/svg10.dtd">
<svg version="1.0" xmlns="http://www.w3.org/2000/svg"
 width="387.000000pt" height="387.000000pt" viewBox="0 0 387.000000 387.000000"
 preserveAspectRatio="xMidYMid meet">
<metadata>
Created by potrace 1.16, written by Peter Selinger 2001-2019
</metadata>
<g transform="translate(0.000000,387.000000) scale(0.100000,-0.100000)"
fill="#000000" stroke="none">
<path d="M102 3767 c-93 -94 -103 -107 -100 -136 3 -31 4 -31 138 104 l135
135 -35 0 c-31 0 -47 -11 -138 -103z"/>
<path d="M388 3853 c-6 -7 -16 -13 -23 -13 -7 0 -43 -16 -81 -35 -111 -55
-199 -152 -241 -264 -9 -25 -21 -52 -27 -60 -14 -18 -16 -285 -2 -271 7 7 16
-6 28 -37 l18 -47 -30 -31 c-21 -22 -30 -41 -30 -65 l0 -34 43 42 44 43 28
-36 28 -37 -72 -72 c-60 -61 -71 -77 -71 -106 l0 -35 90 90 90 90 32 -33 33
-32 -123 -123 c-109 -109 -122 -126 -122 -157 0 -35 0 -34 140 105 l140 140
32 -33 33 -32 -173 -173 c-157 -157 -172 -175 -172 -207 0 -34 3 -32 190 155
l190 190 32 -33 33 -32 -223 -223 c-204 -204 -222 -225 -222 -257 0 -34 5 -30
240 205 l240 240 32 -33 33 -32 -273 -273 c-252 -252 -272 -275 -272 -307 0
-34 8 -27 290 255 l290 290 32 -33 33 -32 -323 -323 c-300 -300 -322 -325
-322 -357 0 -34 10 -25 340 305 l340 340 32 -33 33 -32 -373 -373 c-347 -347
-372 -374 -372 -407 0 -34 12 -23 390 355 l390 390 32 -33 33 -32 -423 -423
c-395 -395 -422 -424 -422 -457 0 -34 15 -20 440 405 l440 440 32 -33 33 -32
-473 -473 c-442 -442 -472 -474 -472 -507 0 -34 17 -18 490 455 l490 490 32
-33 33 -32 -523 -523 c-490 -490 -522 -524 -522 -557 0 -34 19 -15 540 505
l540 540 32 -33 33 -32 -573 -573 c-538 -538 -572 -574 -572 -607 0 -34 22
-13 590 555 l590 590 22 -23 23 -22 -557 -558 c-346 -346 -569 -578 -591 -612
-19 -30 -44 -64 -56 -74 -21 -19 -32 -94 -11 -81 5 3 8 0 6 -7 -9 -29 -16
-199 -8 -194 5 3 14 -18 21 -45 12 -47 12 -52 -8 -73 -13 -14 -21 -35 -21 -56
l0 -34 33 32 34 33 26 -39 25 -39 -59 -59 c-50 -49 -59 -64 -59 -93 l0 -35 74
73 c77 77 80 77 124 38 l22 -21 -42 -43 -42 -43 35 0 c26 0 43 8 63 29 l28 29
42 -18 c22 -10 40 -22 39 -28 -2 -7 43 -11 126 -11 142 -1 210 13 298 64 30
17 257 235 613 589 l565 561 -605 -608 c-583 -585 -604 -607 -570 -607 33 0
70 35 622 587 l588 588 32 -33 33 -32 -555 -555 c-535 -535 -554 -555 -520
-555 33 0 68 33 572 537 l538 538 32 -33 33 -32 -505 -505 c-487 -487 -504
-505 -470 -505 33 0 65 30 522 487 l488 488 32 -33 33 -32 -455 -455 c-440
-440 -454 -455 -420 -455 33 0 63 28 472 437 l438 438 32 -33 33 -32 -405
-405 c-392 -392 -404 -405 -370 -405 33 0 60 26 422 387 l388 388 32 -33 33
-32 -355 -355 c-344 -344 -354 -355 -320 -355 32 0 58 23 372 337 l338 338 32
-33 33 -32 -305 -305 c-297 -297 -304 -305 -270 -305 32 0 56 21 322 287 l288
288 32 -33 33 -32 -255 -255 c-249 -249 -254 -255 -220 -255 32 0 53 18 272
237 l238 238 32 -33 33 -32 -205 -205 c-201 -202 -204 -205 -170 -205 32 0 51
16 222 187 l188 188 32 -33 33 -32 -155 -155 c-154 -154 -155 -155 -120 -155
31 0 48 14 172 137 l138 138 32 -33 33 -32 -105 -105 -105 -105 35 0 c30 0 46
11 122 87 l88 88 32 -33 32 -32 -54 -55 -54 -55 34 0 c27 0 43 9 75 40 l42 41
41 -24 c39 -22 40 -24 25 -40 -16 -16 -15 -17 19 -17 20 0 39 4 42 9 4 5 24 5
48 -1 58 -13 212 -4 267 16 44 16 44 16 26 -4 -18 -20 -18 -20 16 -20 30 0 48
15 166 132 119 119 133 136 133 167 0 34 0 34 -20 16 -20 -18 -20 -18 -4 26
20 55 29 209 16 267 -6 24 -6 44 -1 48 5 3 9 22 9 42 0 34 -1 35 -17 19 -16
-15 -18 -14 -40 25 l-24 41 41 42 c31 32 40 48 40 75 l0 34 -55 -54 -55 -54
-32 32 -33 32 88 88 c76 76 87 92 87 122 l0 35 -105 -105 -105 -105 -32 33
-33 32 138 138 c123 124 137 141 137 172 0 35 -1 34 -155 -120 l-155 -155 -32
33 -33 32 188 188 c171 171 187 190 187 222 0 34 -3 31 -205 -170 l-205 -205
-32 33 -33 32 238 238 c219 219 237 240 237 272 0 34 -6 29 -255 -220 l-255
-255 -32 33 -33 32 288 288 c266 266 287 290 287 322 0 34 -8 27 -305 -270
l-305 -305 -32 33 -33 32 338 338 c314 314 337 340 337 372 0 34 -11 24 -355
-320 l-355 -355 -32 33 -33 32 388 388 c361 362 387 389 387 422 0 34 -13 22
-405 -370 l-405 -405 -32 33 -33 32 438 438 c409 409 437 439 437 472 0 34
-15 20 -455 -420 l-455 -455 -32 33 -33 32 488 488 c457 457 487 489 487 522
0 34 -18 17 -505 -470 l-505 -505 -32 33 -33 32 538 538 c504 504 537 539 537
572 0 34 -20 15 -555 -520 l-555 -555 -32 33 -33 32 588 588 c552 552 587 589
587 622 0 34 -22 13 -607 -570 l-608 -605 561 565 c354 356 572 583 589 613
51 89 65 156 64 297 -1 92 -4 127 -13 124 -6 -2 -19 15 -29 38 l-17 42 30 31
c21 22 30 41 30 65 l0 34 -43 -42 -43 -42 -21 22 c-39 44 -39 47 38 124 l73
74 -35 0 c-29 0 -44 -9 -93 -59 l-59 -59 -39 25 -39 26 33 34 32 33 -34 0
c-21 0 -42 -8 -56 -21 -21 -20 -26 -20 -73 -8 -27 7 -47 17 -44 22 5 8 -134 2
-185 -9 -15 -3 -21 -1 -17 6 13 21 -61 11 -81 -11 -10 -12 -44 -37 -74 -56
-34 -22 -266 -245 -612 -591 l-558 -557 -22 23 -23 22 590 590 c568 568 589
590 555 590 -33 0 -69 -34 -607 -572 l-573 -573 -32 33 -33 32 540 540 c520
521 539 540 505 540 -33 0 -67 -32 -557 -522 l-523 -523 -32 33 -33 32 490
490 c473 473 489 490 455 490 -33 0 -65 -30 -507 -472 l-473 -473 -32 33 -33
32 440 440 c425 425 439 440 405 440 -33 0 -62 -27 -457 -422 l-423 -423 -32
33 -33 32 390 390 c378 378 389 390 355 390 -33 0 -60 -25 -407 -372 l-373
-373 -32 33 -33 32 340 340 c330 330 339 340 305 340 -32 0 -57 -22 -357 -322
l-323 -323 -32 33 -33 32 290 290 c282 282 289 290 255 290 -32 0 -55 -20
-307 -272 l-273 -273 -32 33 -33 32 240 240 c235 235 239 240 205 240 -32 0
-53 -18 -257 -222 l-223 -223 -32 33 -33 32 190 190 c187 187 189 190 155 190
-32 0 -50 -15 -207 -172 l-173 -173 -32 33 -33 32 140 140 c139 140 140 140
105 140 -31 0 -48 -13 -157 -122 l-123 -123 -32 33 -33 32 90 90 90 90 -35 0
c-29 0 -45 -11 -106 -71 l-72 -72 -37 28 -36 28 43 44 42 43 -34 0 c-24 0 -43
-9 -65 -30 l-31 -30 -47 18 c-30 12 -43 22 -37 28 6 6 -39 9 -126 9 -97 0
-138 -3 -146 -12z"/>
</g>
</svg>
